<svg width="512" height="512" viewBox="0 0 512 512" fill="none" xmlns="http://www.w3.org/2000/svg">
<path d="M395.847 0C396.812 13.0647 396.31 34.9106 383.55 54.99C377.624 64.3131 369.39 72.7275 357.505 80.3123C295.878 119.647 160.181 121.408 114.13 179.733C101.28 196.009 88.7119 225.163 98.4864 280.729C98.334 257.506 105.411 244.182 110.603 236.964C149.718 182.578 254.365 235.017 358.955 173.65C389.007 156.02 399.656 140.37 404.538 131.685C433.76 79.6859 403.437 15.1866 395.858 0.00564468L395.847 0Z" fill="#231E20"/>
<path d="M366.907 210.547C347.381 227.822 329.677 235.615 318.43 239.487C256.086 260.949 192.981 230.502 145.344 258.003C140.897 260.571 137.443 263.144 134.317 266.231C112.533 287.704 116.416 323.981 118.408 342.553C126.196 415.275 190.989 495.808 202.665 510.086C200.041 505.029 196.141 497.275 191.813 487.659C175.819 452.127 127.522 344.816 159.978 307.502C192.721 269.86 281.459 333.575 335.072 289.414C360.575 268.404 365.807 233.132 366.907 210.553V210.547Z" fill="#231E20"/>
</svg>
